<svg width="14" height="19" viewBox="0 0 14 19" fill="none" xmlns="http://www.w3.org/2000/svg">
<path d="M9.28125 8.125C9.73828 8.125 10.125 8.51172 10.125 8.96875C10.125 9.46094 9.73828 9.8125 9.28125 9.8125H4.21875C3.72656 9.8125 3.375 9.46094 3.375 8.96875C3.375 8.51172 3.72656 8.125 4.21875 8.125H9.28125ZM5.90625 11.5C6.36328 11.5 6.75 11.8867 6.75 12.3438C6.75 12.8359 6.36328 13.1875 5.90625 13.1875H4.21875C3.72656 13.1875 3.375 12.8359 3.375 12.3438C3.375 11.8867 3.72656 11.5 4.21875 11.5H5.90625ZM9.28125 4.75C9.73828 4.75 10.125 5.13672 10.125 5.59375C10.125 6.08594 9.73828 6.4375 9.28125 6.4375H4.21875C3.72656 6.4375 3.375 6.08594 3.375 5.59375C3.375 5.13672 3.72656 4.75 4.21875 4.75H9.28125ZM11.25 0.25C12.4805 0.25 13.5 1.26953 13.5 2.5V16C13.5 17.2656 12.4805 18.25 11.25 18.25H2.25C0.984375 18.25 0 17.2656 0 16V2.5C0 1.26953 0.984375 0.25 2.25 0.25H11.25ZM11.8125 16V2.5C11.8125 2.21875 11.5312 1.9375 11.25 1.9375H2.25C1.93359 1.9375 1.6875 2.21875 1.6875 2.5V16C1.6875 16.3164 1.93359 16.5625 2.25 16.5625H11.25C11.5312 16.5625 11.8125 16.3164 11.8125 16Z" fill="#00AEEF"/>
</svg>
