<svg width="65" height="64" viewBox="0 0 65 64" fill="none" xmlns="http://www.w3.org/2000/svg">
<path d="M32.5 58C46.75 58 58.5 46.375 58.5 32C58.5 17.75 46.75 6 32.5 6C18.125 6 6.5 17.75 6.5 32C6.5 34.25 6.75 36.375 7.25 38.5C5.5 39.75 4.5 41.75 4.5 44V47.5C1.875 43 0.5 37.625 0.5 32C0.5 14.375 14.75 0 32.5 0C50.125 0 64.5 14.375 64.5 32C64.5 49.75 50.125 64 32.5 64C31.125 64 29.75 64 28.5 63.875C29 63.125 29.375 62.375 29.75 61.5L31 58C31.5 58 32 58 32.5 58ZM34 38.5L30.125 39.875L22 38C20.875 37.75 20.25 36.625 20.5 35.625C20.75 34.5 21.875 33.875 22.875 34.125L35 37C36 37.25 37 37.625 37.875 38.25C36.625 38 35.25 38 34 38.5ZM26.5 24C26.5 26.25 24.75 28 22.5 28C20.25 28 18.5 26.25 18.5 24C18.5 21.875 20.25 20 22.5 20C24.75 20 26.5 21.875 26.5 24ZM38.5 26C38.5 23.875 40.25 22 42.5 22C44.75 22 46.5 23.875 46.5 26C46.5 28.25 44.75 30 42.5 30C40.25 30 38.5 28.25 38.5 26ZM27.5 18.125C24.875 16 21.25 15.625 18.25 17.25L17.375 17.75C16.5 18.375 15.25 18 14.75 17C14.125 16.125 14.5 14.875 15.5 14.375L16.375 13.875C20.75 11.25 26.25 11.875 30.125 15.125L31.75 16.5C32.625 17.25 32.625 18.5 32 19.375C31.25 20.25 30 20.25 29.125 19.625L27.5 18.125ZM14.5 50.125L35.375 42.25C36.875 41.625 38.625 42.5 39.25 44C39.875 45.5 39 47.25 37.5 47.875L29.25 50.875C29.25 51 29.25 51 29.25 51.125L26 60.125C25.125 62.5 22.875 64 20.375 64H14.5C11.125 64 8.5 61.375 8.5 58V44C8.5 42.375 9.75 41 11.5 41C13.125 41 14.5 42.375 14.5 44V50.125Z" fill="#A7AEB8"/>
</svg>
