<svg width="11" height="15" viewBox="0 0 11 15" fill="none" xmlns="http://www.w3.org/2000/svg">
<path d="M2 0.75H6.375V4.25C6.375 4.74219 6.75781 5.125 7.25 5.125H10.75V13C10.75 13.9844 9.95703 14.75 9 14.75H2C1.01562 14.75 0.25 13.9844 0.25 13V2.5C0.25 1.54297 1.01562 0.75 2 0.75ZM7.25 0.75L10.75 4.25H7.25V0.75ZM3.75 7.75C3.75 8.37891 4.07812 8.95312 4.625 9.28125C5.14453 9.58203 5.82812 9.58203 6.375 9.28125C6.89453 8.95312 7.25 8.37891 7.25 7.75C7.25 7.14844 6.89453 6.57422 6.375 6.24609C5.82812 5.94531 5.14453 5.94531 4.625 6.24609C4.07812 6.57422 3.75 7.14844 3.75 7.75ZM2.4375 12.5625C2.4375 12.8086 2.62891 13 2.875 13H8.125C8.34375 13 8.5625 12.8086 8.5625 12.5625C8.5625 11.3594 7.57812 10.375 6.375 10.375H4.625C3.39453 10.375 2.4375 11.3594 2.4375 12.5625Z" fill="#A7AEB8"/>
</svg>
