<svg width="14" height="15" viewBox="0 0 14 15" fill="none" xmlns="http://www.w3.org/2000/svg">
<path d="M6.34375 9.44336V7.69336H4.59375C4.21094 7.69336 3.9375 7.41992 3.9375 7.03711C3.9375 6.68164 4.21094 6.38086 4.59375 6.38086H6.34375V4.63086C6.34375 4.27539 6.61719 3.97461 7 3.97461C7.35547 3.97461 7.65625 4.27539 7.65625 4.63086V6.38086H9.40625C9.76172 6.38086 10.0625 6.68164 10.0625 7.03711C10.0625 7.41992 9.76172 7.69336 9.40625 7.69336H7.65625V9.44336C7.65625 9.82617 7.35547 10.0996 7 10.0996C6.61719 10.0996 6.34375 9.82617 6.34375 9.44336ZM14 7.03711C14 10.9199 10.8555 14.0371 7 14.0371C3.11719 14.0371 0 10.9199 0 7.03711C0 3.18164 3.11719 0.0371094 7 0.0371094C10.8555 0.0371094 14 3.18164 14 7.03711ZM7 1.34961C3.85547 1.34961 1.3125 3.91992 1.3125 7.03711C1.3125 10.1816 3.85547 12.7246 7 12.7246C10.1172 12.7246 12.6875 10.1816 12.6875 7.03711C12.6875 3.91992 10.1172 1.34961 7 1.34961Z" fill="white"/>
</svg>
