<svg width="14" height="16" viewBox="0 0 14 16" fill="none" xmlns="http://www.w3.org/2000/svg">
<path d="M10.9102 11.2773C10.2812 10.2109 9.16016 9.5 7.875 9.5H6.125C4.8125 9.5 3.69141 10.2109 3.08984 11.2773C4.04688 12.3438 5.44141 13 7 13C8.53125 13 9.92578 12.3438 10.9102 11.2773ZM0 7.75C0 5.26172 1.3125 2.96484 3.5 1.70703C5.66016 0.449219 8.3125 0.449219 10.5 1.70703C12.6602 2.96484 14 5.26172 14 7.75C14 10.2656 12.6602 12.5625 10.5 13.8203C8.3125 15.0781 5.66016 15.0781 3.5 13.8203C1.3125 12.5625 0 10.2656 0 7.75ZM7 8.1875C7.68359 8.1875 8.33984 7.83203 8.69531 7.20312C9.05078 6.60156 9.05078 5.86328 8.69531 5.23438C8.33984 4.63281 7.68359 4.25 7 4.25C6.28906 4.25 5.63281 4.63281 5.27734 5.23438C4.92188 5.86328 4.92188 6.60156 5.27734 7.20312C5.63281 7.83203 6.28906 8.1875 7 8.1875Z" fill="#A7AEB8"/>
</svg>
