<svg width="17" height="11" viewBox="0 0 17 11" fill="none" xmlns="http://www.w3.org/2000/svg">
<path d="M8.96875 8.8125C9.32422 8.8125 9.625 9.11328 9.625 9.46875C9.625 9.85156 9.32422 10.125 8.96875 10.125H3.0625C2.67969 10.125 2.40625 9.85156 2.40625 9.46875V4H0.875C0.601562 4 0.355469 3.86328 0.246094 3.61719C0.164062 3.37109 0.21875 3.07031 0.410156 2.90625L2.59766 0.71875C2.70703 0.582031 2.87109 0.5 3.0625 0.5C3.22656 0.5 3.39062 0.582031 3.5 0.691406L5.6875 2.90625C5.87891 3.07031 5.93359 3.37109 5.85156 3.61719C5.74219 3.86328 5.49609 4 5.25 4H3.71875V8.8125H8.96875ZM16.3516 7.91016C16.4336 8.15625 16.3789 8.45703 16.1875 8.62109L14 10.8086C13.8906 10.9453 13.7266 11 13.5625 11C13.3711 11 13.207 10.9453 13.0977 10.8086L10.9102 8.62109C10.7188 8.42969 10.6641 8.12891 10.7461 7.88281C10.8555 7.63672 11.1016 7.5 11.375 7.5H12.9062V2.6875H7.65625C7.27344 2.6875 7 2.41406 7 2.03125C7 1.67578 7.27344 1.375 7.65625 1.375H13.5625C13.918 1.375 14.2188 1.67578 14.2188 2.03125V7.5H15.75C15.9961 7.5 16.2422 7.66406 16.3516 7.91016Z" fill="#303439"/>
</svg>
