<svg width="65" height="54" viewBox="0 0 65 54" fill="none" xmlns="http://www.w3.org/2000/svg">
<g clip-path="url(#clip0_3729_20010)">
<path d="M44.1999 10.5168C44.1999 10.5168 49.5394 7.5345 51.3171 4.2168C51.2379 4.36622 51.7196 5.26883 51.7867 5.43654C51.9544 5.86955 52.1222 6.30562 52.2868 6.74168C52.6284 7.63819 52.9607 8.53775 53.2687 9.44646C53.944 11.3954 54.454 13.3978 54.7934 15.4324C55.6503 20.7626 54.9093 26.1539 53.2474 31.2555C52.3326 34.0456 51.2348 36.8938 49.4631 39.2875C45.5264 44.5964 39.3362 47.8257 32.9966 49.3229L32.7709 49.3748L32.5453 49.4266C32.2556 49.4907 31.9628 49.5517 31.6701 49.6066C30.395 49.8482 29.1035 49.993 27.8066 50.0396C26.6337 50.0772 25.4596 50.0293 24.2937 49.8962C18.0547 49.1735 12.4469 45.9687 7.82714 41.8307C7.42767 41.4709 8.37723 41.4566 7.93507 41.1364C10.5301 43.0606 23.2478 54.6532 39.2142 42.1509C39.3911 42.0106 39.5618 41.8459 39.7326 41.7087C39.9704 41.4983 40.2083 41.2848 40.437 41.0683C40.7267 40.7939 41.0103 40.5103 41.2847 40.2206C41.61 39.875 41.9241 39.5213 42.227 39.1594C42.5746 38.7427 42.906 38.3127 43.2211 37.8695C43.5748 37.3786 43.9072 36.8694 44.2213 36.3449C44.5658 35.7716 44.886 35.18 45.1788 34.5793C45.502 33.9186 45.7937 33.2447 46.0539 32.5576C46.3406 31.8105 46.5876 31.0329 46.801 30.2736C47.0328 29.432 47.2218 28.5781 47.3743 27.7182C47.5359 26.779 47.6518 25.8307 47.725 24.8793C47.8043 23.8394 47.8317 22.7935 47.8134 21.7506C47.7921 20.5949 47.7128 19.4453 47.5878 18.2957C47.5695 18.1066 47.5481 17.9206 47.5268 17.7316C47.4301 17.24 47.2745 16.7618 47.0633 16.3075C46.8773 15.8257 46.6913 15.3439 46.4961 14.8652C46.118 13.929 45.7185 12.999 45.2489 12.1055C44.9846 11.5243 44.6306 10.9882 44.1999 10.5168Z" fill="#A7AEB8" stroke="white" stroke-width="0.6" stroke-miterlimit="10"/>
<path d="M23.3672 45.7343C35.9963 45.7343 46.2343 35.4963 46.2343 22.8672C46.2343 10.238 35.9963 0 23.3672 0C10.738 0 0.5 10.238 0.5 22.8672C0.5 35.4963 10.738 45.7343 23.3672 45.7343Z" fill="#A7AEB8"/>
<path d="M2.26562 27.5141C7.17205 44.0599 20.7326 44.3953 23.0989 44.4441C40.5168 44.3953 43.9138 27.9471 43.9138 27.9471L44.0571 27.2305" stroke="white" stroke-width="0.8" stroke-linecap="round" stroke-linejoin="round"/>
<path d="M1.54297 38.892C1.54297 38.892 21.1656 63.3235 47.134 46.1068C50.4059 44.3748 66.1803 32.3512 58.9655 9.94141C57.8128 11.091 57.4408 13.0091 52.8485 14.8204C52.8384 14.8232 52.8298 14.83 52.8247 14.8391C52.8195 14.8483 52.8182 14.8591 52.821 14.8692C52.9034 15.1223 53.315 16.7933 53.3364 16.9031C53.5985 18.2108 53.7667 19.5356 53.8395 20.8673C53.9375 22.6394 53.8692 24.4168 53.6352 26.1762C53.3567 28.2776 52.8253 30.3376 52.0526 32.3115C51.1458 34.6128 49.9224 36.7764 48.4178 38.7396C46.5585 41.1369 44.3662 43.2563 41.9074 45.0335C40.7192 45.8824 39.4555 46.6204 38.1323 47.2381C36.5591 47.9196 34.9374 48.4833 33.2807 48.9244C31.4513 49.4177 29.5765 49.7242 27.6852 49.8392C25.4271 49.9776 23.1606 49.8135 20.9461 49.3513C18.306 48.7783 15.7664 47.8142 13.4111 46.491C10.4735 44.8197 7.78425 42.7453 5.42177 40.3283C5.19001 40.0965 4.95826 39.8617 4.73261 39.6239C4.61978 39.505 4.18677 38.892 4.04345 38.8859C2.93653 38.8432 1.54297 38.892 1.54297 38.892Z" fill="#A7AEB8" stroke="white" stroke-width="0.6" stroke-miterlimit="10"/>
<path d="M64.158 17.9238C64.0787 17.9757 64.2586 19.2716 64.2617 19.3906C64.2924 20.7152 64.2242 22.0403 64.0574 23.3547C63.4845 27.7954 61.9596 32.06 59.587 35.8571C55.943 41.7271 50.506 46.2493 44.4865 49.5335C43.1631 50.2562 41.7726 51.0856 40.3333 51.5491C34.1126 53.5556 27.9163 53.3788 21.598 52.095C20.4118 51.8571 19.2317 51.5979 18.0547 51.3326C23.8881 52.1651 32.0817 54.4735 43.6388 47.6734C49.7375 43.5049 58.5167 37.7996 59.8004 20.8695L64.158 17.9238Z" fill="#A7AEB8" stroke="white" stroke-width="0.6" stroke-miterlimit="10"/>
<path d="M44.3777 19.5891L44.2008 18.598C39.2944 2.05219 25.7339 1.71676 23.3676 1.66797C5.94962 1.71676 2.55263 18.165 2.55263 18.165L2.28125 19.3665" stroke="white" stroke-width="0.8" stroke-linecap="round" stroke-linejoin="round"/>
<path d="M7.89453 9.45898C7.89453 9.45898 24.0561 19.6561 39.2023 9.94079" stroke="white" stroke-width="0.8" stroke-linecap="round" stroke-linejoin="round"/>
<path d="M39.0228 36.7726C39.0228 36.7726 22.8611 26.5786 7.71191 36.2939" stroke="white" stroke-width="0.8" stroke-linecap="round" stroke-linejoin="round"/>
<path d="M23.3307 44.1825C29.4137 44.1825 34.345 34.8415 34.345 23.3188C34.345 11.7961 29.4137 2.45508 23.3307 2.45508C17.2477 2.45508 12.3164 11.7961 12.3164 23.3188C12.3164 34.8415 17.2477 44.1825 23.3307 44.1825Z" stroke="white" stroke-width="0.8" stroke-miterlimit="10"/>
<path d="M1.35048 27.1854C1.31813 27.1854 1.28711 27.1725 1.26423 27.1497C1.24136 27.1268 1.22852 27.0957 1.22852 27.0634V26.8652C1.22852 26.8328 1.24136 26.8018 1.26423 26.7789C1.28711 26.7561 1.31813 26.7432 1.35048 26.7432H1.55175C1.67623 26.7496 1.79968 26.7177 1.90546 26.6517C1.97001 26.6021 2.01615 26.5323 2.03659 26.4535C2.0806 26.2441 2.09497 26.0296 2.07928 25.8162V21.0165C2.09496 20.796 2.08059 20.5745 2.03659 20.3578C2.00839 20.2803 1.95461 20.2147 1.88412 20.1718C1.78437 20.111 1.66836 20.0822 1.55175 20.0895H1.35048C1.31813 20.0895 1.28711 20.0767 1.26423 20.0538C1.24136 20.0309 1.22852 19.9999 1.22852 19.9675V19.7724C1.22852 19.74 1.24136 19.709 1.26423 19.6861C1.28711 19.6633 1.31813 19.6504 1.35048 19.6504H4.57671C4.60906 19.6504 4.64008 19.6633 4.66296 19.6861C4.68583 19.709 4.69869 19.74 4.69869 19.7724V19.9736C4.69869 20.006 4.68583 20.037 4.66296 20.0599C4.64008 20.0828 4.60906 20.0956 4.57671 20.0956H4.31447C4.19039 20.0893 4.06723 20.1201 3.96073 20.184C3.89475 20.2354 3.84586 20.3056 3.82047 20.3853C3.78034 20.5952 3.76702 20.8093 3.78083 21.0226V25.6698C3.7663 25.8955 3.78167 26.1221 3.82656 26.3437C3.83898 26.3787 3.85835 26.4108 3.88351 26.438C3.90867 26.4653 3.93909 26.4871 3.97294 26.5023C4.13298 26.5378 4.29729 26.5501 4.46083 26.5389H4.96704C5.22564 26.5477 5.48145 26.4832 5.70498 26.3529C5.9255 26.1972 6.10198 25.9871 6.21727 25.743C6.40993 25.3372 6.55522 24.9105 6.65027 24.4714C6.65648 24.4445 6.67163 24.4206 6.69323 24.4034C6.71483 24.3862 6.74161 24.3769 6.7692 24.3769H6.95215C6.96885 24.3769 6.98536 24.3805 7.0006 24.3873C7.01584 24.3941 7.02947 24.4041 7.0406 24.4165C7.05274 24.4289 7.06203 24.4438 7.06783 24.4601C7.07362 24.4764 7.07577 24.4938 7.07414 24.5111L6.84543 27.0695C6.84312 27.1002 6.82926 27.129 6.80663 27.1499C6.784 27.1708 6.75428 27.1824 6.72345 27.1823L1.35048 27.1854Z" fill="#303439"/>
<path d="M4.57662 19.7723V19.9735H4.31438C4.16473 19.9655 4.01637 20.005 3.89051 20.0864C3.8017 20.148 3.73703 20.2385 3.70756 20.3425C3.66212 20.5661 3.64571 20.7947 3.65876 21.0225V25.6697C3.64558 25.9088 3.66302 26.1486 3.71061 26.3833C3.72893 26.4334 3.75692 26.4793 3.79303 26.5186C3.82913 26.5578 3.87262 26.5896 3.921 26.612C4.09719 26.6567 4.27938 26.6732 4.46074 26.6608H4.96695C5.2484 26.6716 5.52696 26.6006 5.76893 26.4565C6.00621 26.292 6.19729 26.0694 6.3239 25.81C6.52258 25.3948 6.672 24.9578 6.76911 24.5079H6.95207L6.72336 27.0694H1.35039V26.8712H1.55166C1.70109 26.8772 1.84886 26.8379 1.97552 26.7583C2.06192 26.6943 2.12421 26.603 2.15237 26.4992C2.19806 26.2766 2.21448 26.049 2.20117 25.8222V21.0164C2.21391 20.7815 2.19751 20.5459 2.15237 20.3151C2.11443 20.2144 2.0449 20.1288 1.95418 20.0711C1.83379 19.9961 1.69328 19.9599 1.55166 19.9674H1.35039V19.7723H4.57662ZM4.57662 19.5283H1.35039C1.28569 19.5283 1.22365 19.554 1.1779 19.5998C1.13215 19.6455 1.10645 19.7076 1.10645 19.7723V19.9735C1.10645 20.0382 1.13215 20.1003 1.1779 20.146C1.22365 20.1918 1.28569 20.2175 1.35039 20.2175H1.55166C1.64285 20.2109 1.73399 20.231 1.8139 20.2754C1.8629 20.3057 1.90126 20.3504 1.92367 20.4035C1.95808 20.6048 1.96935 20.8095 1.95723 21.0134V25.813C1.96945 26.0109 1.95817 26.2095 1.92367 26.4046C1.91085 26.4586 1.88219 26.5074 1.84135 26.5449C1.75428 26.5977 1.65337 26.6232 1.55166 26.6181H1.35039C1.28569 26.6181 1.22365 26.6438 1.1779 26.6895C1.13215 26.7353 1.10645 26.7973 1.10645 26.862V27.0602C1.10645 27.1249 1.13215 27.187 1.1779 27.2327C1.22365 27.2785 1.28569 27.3042 1.35039 27.3042H6.72336C6.78453 27.3044 6.84357 27.2817 6.88875 27.2404C6.93393 27.1992 6.96198 27.1425 6.96733 27.0816L7.19603 24.5201C7.19849 24.4864 7.19406 24.4525 7.18306 24.4206C7.17205 24.3886 7.15468 24.3592 7.13199 24.3341C7.10926 24.309 7.08149 24.2889 7.05049 24.2753C7.01948 24.2616 6.98594 24.2547 6.95207 24.2548H6.76911C6.71434 24.2546 6.66109 24.2729 6.61795 24.3066C6.5748 24.3404 6.54428 24.3876 6.53127 24.4408C6.43863 24.8711 6.29745 25.2896 6.11046 25.688C6.00181 25.9088 5.83923 26.0986 5.63779 26.24C5.43503 26.3594 5.20206 26.4177 4.96695 26.4077H4.46074C4.31164 26.4174 4.16192 26.4072 4.01555 26.3772C3.99811 26.3696 3.98251 26.3583 3.96987 26.3441C3.95724 26.3299 3.94784 26.3131 3.94235 26.2949C3.90304 26.0859 3.88973 25.8728 3.9027 25.6606V21.0164C3.8902 20.8186 3.90147 20.62 3.93626 20.4248C3.94897 20.3701 3.97889 20.321 4.02163 20.2846C4.11255 20.2275 4.21966 20.2018 4.32657 20.2114H4.58881C4.65351 20.2114 4.71557 20.1857 4.76132 20.1399C4.80707 20.0942 4.83277 20.0321 4.83277 19.9674V19.7723C4.83277 19.7076 4.80707 19.6455 4.76132 19.5998C4.71557 19.554 4.65351 19.5283 4.58881 19.5283H4.57662Z" fill="white"/>
<path d="M10.8682 27.3532C10.347 27.3704 9.83021 27.2512 9.36917 27.0073C8.90813 26.7634 8.51879 26.4033 8.23969 25.9627C7.74523 25.1992 7.49231 24.3044 7.51394 23.3951C7.4809 22.3813 7.81678 21.3899 8.45924 20.6049C8.72148 20.2722 9.05599 20.0035 9.43742 19.8191C9.81885 19.6347 10.2372 19.5395 10.6609 19.5407H10.9658C11.4022 19.5313 11.8348 19.6223 12.2304 19.8069C12.6259 19.9914 12.9736 20.2645 13.2467 20.6049C13.882 21.3908 14.2132 22.379 14.1798 23.389C14.1956 24.2742 13.954 25.145 13.4846 25.8956C13.2182 26.3498 12.8351 26.7245 12.375 26.9808C11.915 27.2371 11.3947 27.3657 10.8682 27.3532ZM10.8682 20.1323C10.3651 20.1323 9.98697 20.4372 9.71863 21.0806C9.45501 21.8394 9.33807 22.6414 9.37405 23.4439C9.37405 24.6636 9.55092 25.5784 9.9016 26.1395C9.99318 26.3131 10.1312 26.4578 10.3003 26.5574C10.4694 26.657 10.6629 26.7077 10.8591 26.7037C11.1107 26.7203 11.3592 26.6407 11.5543 26.4811C11.8388 26.1936 12.0374 25.8324 12.1276 25.4382C12.2867 24.8055 12.3586 24.154 12.3411 23.5018C12.3673 22.7837 12.2944 22.0655 12.1246 21.3673C12.037 21.0062 11.8537 20.6755 11.594 20.4098C11.3943 20.2274 11.1325 20.1282 10.8621 20.1323H10.8682Z" fill="#303439"/>
<path d="M10.9718 19.662C11.39 19.652 11.8049 19.7387 12.1842 19.9154C12.5634 20.092 12.8968 20.3539 13.1582 20.6805C13.7796 21.4433 14.1045 22.405 14.073 23.3883C14.0891 24.2496 13.855 25.097 13.3991 25.8278C13.1431 26.266 12.7738 26.6272 12.3301 26.8735C11.8864 27.1198 11.3845 27.242 10.8773 27.2275C10.3759 27.2456 9.8785 27.1317 9.43489 26.8974C8.99128 26.663 8.61695 26.3163 8.34934 25.8919C7.86789 25.1484 7.62236 24.2768 7.64493 23.3914C7.6093 22.4065 7.93462 21.4424 8.55974 20.6805C8.81001 20.361 9.12993 20.103 9.4951 19.9259C9.86027 19.7489 10.261 19.6576 10.6669 19.659H10.9718M10.8529 26.8219C11.1336 26.8321 11.4079 26.7363 11.6213 26.5536C11.9249 26.2519 12.1364 25.8701 12.2312 25.4528C12.3914 24.8088 12.4642 24.1462 12.4477 23.4829C12.4752 22.7533 12.4003 22.0235 12.2251 21.3148C12.1318 20.9319 11.9357 20.5819 11.6579 20.3024C11.4386 20.1052 11.1539 19.9965 10.859 19.9975C10.306 19.9975 9.88521 20.338 9.59653 21.019C9.32681 21.7923 9.20676 22.6098 9.2428 23.428C9.2428 24.6752 9.42577 25.593 9.78864 26.1907C9.89312 26.3794 10.0472 26.536 10.2342 26.6435C10.4213 26.751 10.6341 26.8053 10.8498 26.8006M10.9687 19.3937H10.6638C10.2223 19.3922 9.78634 19.4913 9.38897 19.6837C8.99161 19.876 8.64335 20.1565 8.37068 20.5037C7.70762 21.3086 7.3607 22.3277 7.39488 23.37C7.37263 24.3044 7.63303 25.2238 8.14198 26.0077C8.43356 26.467 8.84038 26.8418 9.3219 27.0948C9.80341 27.3479 10.3428 27.4704 10.8864 27.4501C11.4356 27.4631 11.9783 27.3284 12.4578 27.0603C12.9373 26.7921 13.3361 26.4002 13.6125 25.9254C14.094 25.1545 14.3418 24.2605 14.3261 23.3517C14.3597 22.313 14.0187 21.2968 13.3655 20.4884C13.0805 20.1347 12.7181 19.851 12.3064 19.6591C11.8946 19.4672 11.4443 19.3722 10.9901 19.3815L10.9687 19.3937ZM10.8529 26.825C10.6776 26.8281 10.5049 26.7824 10.3542 26.693C10.2034 26.6036 10.0804 26.474 9.99905 26.3188C9.66057 25.7638 9.48979 24.8795 9.48979 23.6841C9.45442 22.8984 9.56825 22.113 9.82523 21.3697C10.0722 20.7811 10.4138 20.4976 10.862 20.4976C11.0977 20.4939 11.3262 20.5788 11.5024 20.7354C11.7447 20.9855 11.9153 21.2962 11.9964 21.635C12.1622 22.3203 12.233 23.0252 12.2068 23.7299C12.2233 24.3706 12.1535 25.0106 11.9994 25.6327C11.9154 26.0051 11.7283 26.3464 11.4597 26.6176C11.2903 26.762 11.0721 26.8362 10.8498 26.825H10.8529Z" fill="white"/>
<path d="M19.83 27.3531C19.81 27.3529 19.7903 27.3478 19.7728 27.3382C19.7553 27.3287 19.7403 27.3149 19.7293 27.2982L15.8597 21.5563V25.7949C15.8263 26.064 15.8973 26.3357 16.0579 26.5542C16.1813 26.676 16.348 26.744 16.5214 26.7432H16.6647C16.6971 26.7432 16.7281 26.7561 16.751 26.779C16.7739 26.8019 16.7867 26.8329 16.7867 26.8652V27.0634C16.7867 27.0958 16.7739 27.1268 16.751 27.1497C16.7281 27.1726 16.6971 27.1854 16.6647 27.1854H14.5302C14.4978 27.1854 14.4668 27.1726 14.4439 27.1497C14.4211 27.1268 14.4082 27.0958 14.4082 27.0634V26.8652C14.4082 26.8329 14.4211 26.8019 14.4439 26.779C14.4668 26.7561 14.4978 26.7432 14.5302 26.7432C14.6406 26.7563 14.7526 26.7448 14.858 26.7095C14.9635 26.6741 15.0598 26.6159 15.1401 26.5389C15.2751 26.3156 15.335 26.0548 15.3108 25.7949V20.6872L15.201 20.5256C15.1238 20.3904 15.0201 20.2722 14.8961 20.178C14.7837 20.1212 14.6591 20.0929 14.5332 20.0956C14.5017 20.0941 14.4718 20.0807 14.4498 20.058C14.4277 20.0354 14.415 20.0053 14.4143 19.9737V19.7724C14.4143 19.7401 14.4271 19.709 14.45 19.6862C14.4729 19.6633 14.5039 19.6504 14.5363 19.6504H16.6708C16.6912 19.6507 16.7113 19.6558 16.7293 19.6653C16.7474 19.6749 16.7629 19.6886 16.7745 19.7053L19.5372 23.8921V21.1477C19.5659 20.8669 19.5185 20.5836 19.4 20.3274C19.3322 20.2398 19.2431 20.171 19.1411 20.1278C19.0391 20.0845 18.9277 20.0682 18.8176 20.0804H18.784C18.768 20.0809 18.752 20.0779 18.7373 20.0716C18.7225 20.0653 18.7093 20.0558 18.6987 20.0438C18.687 20.0329 18.6777 20.0196 18.6714 20.0049C18.6651 19.9903 18.6619 19.9744 18.6621 19.9584V19.7724C18.6621 19.7401 18.6749 19.709 18.6978 19.6862C18.7207 19.6633 18.7517 19.6504 18.784 19.6504H20.7814C20.7975 19.65 20.8136 19.6529 20.8285 19.6589C20.8435 19.6648 20.8571 19.6738 20.8686 19.6852C20.88 19.6966 20.8889 19.7103 20.8949 19.7253C20.9009 19.7402 20.9038 19.7563 20.9033 19.7724V19.9737C20.9031 20.0021 20.8929 20.0296 20.8745 20.0513C20.8561 20.073 20.8307 20.0876 20.8027 20.0926C20.641 20.1051 20.4835 20.1496 20.3392 20.2237C20.2606 20.2882 20.2041 20.3756 20.1776 20.4738C20.1215 20.6989 20.0989 20.9312 20.1105 21.1629V27.2372C20.1105 27.2696 20.0977 27.3006 20.0748 27.3235C20.0519 27.3464 20.0209 27.3592 19.9885 27.3592L19.83 27.3531Z" fill="#303439"/>
<path d="M20.7752 19.7723V19.9735C20.5947 19.9881 20.4192 20.04 20.2598 20.126C20.162 20.2042 20.0907 20.3107 20.0555 20.4309C19.9955 20.6689 19.9708 20.9145 19.9824 21.1597V27.234H19.8299L15.7376 21.1597V25.7978C15.7196 25.9478 15.7314 26.0999 15.7722 26.2453C15.813 26.3908 15.8821 26.5268 15.9755 26.6455C16.121 26.7888 16.3171 26.8688 16.5213 26.8681H16.6647V27.0663H14.5301V26.8681C14.6574 26.8801 14.7859 26.8642 14.9064 26.8215C15.027 26.7789 15.1369 26.7105 15.2284 26.6211C15.3801 26.3748 15.4486 26.0861 15.4236 25.7978V20.6444L15.2924 20.4492C15.2054 20.3014 15.0905 20.1719 14.954 20.068C14.8237 19.9985 14.6777 19.9639 14.5301 19.9674V19.7723H16.6647L19.653 24.2975V21.1567C19.6794 20.8511 19.6247 20.544 19.4944 20.2663C19.4156 20.1619 19.3116 20.0792 19.1922 20.0259C19.0727 19.9725 18.9417 19.9503 18.8114 19.9613H18.7779V19.7723H20.7752ZM20.7752 19.5283H18.7779C18.7132 19.5283 18.6511 19.554 18.6054 19.5998C18.5596 19.6455 18.5339 19.7076 18.5339 19.7723V19.9735C18.5336 20.0059 18.54 20.0381 18.5525 20.068C18.5651 20.0979 18.5837 20.1249 18.6071 20.1473C18.6532 20.1914 18.7141 20.2164 18.7779 20.2175H18.8114C19.159 20.2175 19.2597 20.3638 19.2932 20.4126C19.3977 20.648 19.4377 20.9069 19.4091 21.1628V23.4864L16.869 19.6381C16.8463 19.6047 16.8159 19.5772 16.7803 19.5581C16.7447 19.539 16.705 19.5288 16.6647 19.5283H14.5301C14.4654 19.5283 14.4034 19.554 14.3576 19.5998C14.3119 19.6455 14.2862 19.7076 14.2862 19.7723V19.9735C14.2861 20.0367 14.3105 20.0974 14.3543 20.1429C14.3981 20.1884 14.4578 20.2151 14.5209 20.2175C14.6263 20.214 14.7309 20.236 14.8259 20.2815C14.9325 20.3657 15.0225 20.4692 15.0912 20.5864L15.1796 20.7176V25.7948C15.2072 26.0271 15.1568 26.262 15.0363 26.4626C14.9661 26.5214 14.885 26.5656 14.7975 26.5929C14.7101 26.6201 14.6182 26.6297 14.527 26.6211C14.4952 26.6211 14.4636 26.6275 14.4342 26.6397C14.4047 26.652 14.378 26.6701 14.3556 26.6928C14.3332 26.7154 14.3155 26.7424 14.3036 26.7719C14.2917 26.8015 14.2857 26.8332 14.2862 26.8651V27.0633C14.2862 27.128 14.3119 27.19 14.3576 27.2358C14.4034 27.2815 14.4654 27.3072 14.5301 27.3072H16.6647C16.7293 27.3072 16.7914 27.2815 16.8371 27.2358C16.8829 27.19 16.9086 27.128 16.9086 27.0633V26.8651C16.9086 26.8004 16.8829 26.7383 16.8371 26.6926C16.7914 26.6468 16.7293 26.6211 16.6647 26.6211H16.5213C16.3769 26.6277 16.2356 26.5773 16.128 26.4809C16.07 26.4229 15.9694 26.2644 15.9694 25.81V21.9678L19.6286 27.3804C19.6508 27.4136 19.6807 27.4409 19.7157 27.4601C19.7508 27.4792 19.79 27.4895 19.8299 27.4902H19.9824C20.0471 27.4902 20.1091 27.4645 20.1549 27.4187C20.2006 27.373 20.2263 27.311 20.2263 27.2463V21.1567C20.2127 20.9383 20.2333 20.7192 20.2873 20.5072C20.3054 20.4337 20.3459 20.3676 20.4032 20.3181C20.5316 20.2542 20.6716 20.2169 20.8148 20.2083C20.8719 20.1989 20.9238 20.1695 20.9612 20.1254C20.9987 20.0813 21.0192 20.0253 21.0191 19.9674V19.7723C21.0191 19.7076 20.9934 19.6455 20.9477 19.5998C20.9019 19.554 20.8399 19.5283 20.7752 19.5283Z" fill="white"/>
<path d="M24.7849 27.3713C24.0412 27.3843 23.3138 27.1529 22.7143 26.7126C21.6989 25.9411 21.1165 24.45 21.2598 23.0046C21.4031 21.5592 22.2539 20.2846 23.3791 19.7662C23.7982 19.5748 24.254 19.477 24.7147 19.4795C24.8397 19.4795 24.9678 19.4795 25.0959 19.5009C25.6113 19.5578 26.1117 19.7098 26.5718 19.9492L26.6541 19.9796L26.7334 20.0071L27.3067 20.0467C27.3374 20.049 27.3661 20.0629 27.3871 20.0855C27.408 20.1082 27.4196 20.1379 27.4195 20.1687V22.1721C27.4187 22.2042 27.4056 22.2348 27.3829 22.2575C27.3602 22.2802 27.3296 22.2933 27.2975 22.2941H27.1359C27.1096 22.2938 27.0842 22.285 27.0633 22.2691C27.0424 22.2532 27.0272 22.2309 27.02 22.2057C26.8459 21.4596 26.3974 20.8065 25.7637 20.3761C25.5127 20.2265 25.2264 20.1465 24.9343 20.1443C24.5575 20.1426 24.1946 20.2868 23.9219 20.5468C23.4614 20.989 23.1961 21.7422 23.1168 22.8521C23.0468 23.6273 23.1014 24.4087 23.2785 25.1666C23.358 25.5636 23.5351 25.9346 23.7938 26.2461C24.0422 26.5118 24.3823 26.6731 24.7452 26.6974H24.8733C25.1654 26.6919 25.4539 26.6319 25.7241 26.5205V25.0111C25.7389 24.8467 25.7127 24.6811 25.6478 24.5293C25.5655 24.3799 25.4069 24.3189 25.102 24.3189H25.0654C25.0497 24.3192 25.034 24.3164 25.0194 24.3107C25.0047 24.3049 24.9913 24.2963 24.98 24.2853C24.9683 24.2738 24.959 24.2601 24.9527 24.2449C24.9464 24.2297 24.9432 24.2134 24.9434 24.1969V23.9987C24.9431 23.983 24.9459 23.9673 24.9516 23.9527C24.9574 23.938 24.966 23.9246 24.977 23.9133C24.9885 23.9016 25.0022 23.8923 25.0174 23.886C25.0326 23.8797 25.049 23.8766 25.0654 23.8767H28.0202C28.0526 23.8767 28.0836 23.8896 28.1065 23.9124C28.1294 23.9353 28.1422 23.9663 28.1422 23.9987V24.2C28.1422 24.2313 28.1302 24.2614 28.1087 24.2841C28.0871 24.3068 28.0576 24.3204 28.0263 24.3219C27.9343 24.313 27.8415 24.3251 27.7549 24.3573C27.6682 24.3896 27.59 24.4411 27.5262 24.508C27.444 24.6774 27.4102 24.8663 27.4287 25.0538V26.6151C27.4289 26.639 27.422 26.6624 27.409 26.6825C27.396 26.7025 27.3774 26.7183 27.3555 26.7279C26.6262 27.068 25.8447 27.2824 25.044 27.3622C24.9526 27.3713 24.8702 27.3713 24.7849 27.3713Z" fill="#303439"/>
<path d="M24.7152 19.6017C24.8385 19.6012 24.9618 19.6083 25.0842 19.6231C25.5844 19.6787 26.0701 19.8255 26.5174 20.0561C26.5784 20.0896 26.6424 20.0987 26.7034 20.1292L27.3133 20.1689V22.1693H27.1517C26.9673 21.3952 26.5009 20.7178 25.8435 20.2695C25.5728 20.1096 25.2645 20.0244 24.95 20.0225C24.5414 20.0198 24.1477 20.1762 23.8523 20.4586C23.2759 21.0105 23.0747 21.9589 23.0107 22.8432C22.9411 23.6317 22.9967 24.4262 23.1753 25.1973C23.2627 25.6131 23.45 26.0014 23.7212 26.3286C23.9902 26.6167 24.3585 26.7922 24.7518 26.8195H24.889C25.2244 26.8125 25.5551 26.7389 25.8618 26.603C25.8618 26.0725 25.8618 25.5419 25.8618 25.0113C25.8776 24.8255 25.8462 24.6388 25.7703 24.4685C25.6962 24.3686 25.5964 24.2905 25.4815 24.2428C25.3666 24.195 25.2409 24.1792 25.1178 24.1971H25.0812V23.9989H28.0207V24.2001C27.9075 24.1882 27.793 24.2036 27.6869 24.245C27.5808 24.2864 27.4862 24.3525 27.4109 24.438C27.3141 24.6259 27.2729 24.8374 27.2919 25.0479V26.6091C26.5754 26.9417 25.8069 27.148 25.0202 27.219C24.9409 27.219 24.8586 27.219 24.7762 27.219C24.0585 27.2316 23.3566 27.0077 22.7789 26.5817C21.797 25.8346 21.2329 24.3709 21.3731 22.9835C21.5134 21.596 22.3398 20.3427 23.4223 19.8426C23.8252 19.659 24.2633 19.5654 24.7061 19.5682M24.7061 19.3242C24.2279 19.324 23.7555 19.428 23.3217 19.6292C22.1568 20.1689 21.2786 21.5075 21.1322 22.9682C20.9859 24.4288 21.5836 25.9901 22.6325 26.7829C23.249 27.241 23.9992 27.4832 24.7671 27.4721C24.8525 27.4721 24.9409 27.4721 25.0263 27.4721C25.8423 27.3933 26.6386 27.1746 27.3804 26.8256C27.424 26.807 27.4611 26.776 27.4871 26.7364C27.5132 26.6968 27.527 26.6504 27.5268 26.603V25.0418C27.512 24.8783 27.5382 24.7138 27.603 24.563C27.6701 24.4685 27.8012 24.4441 28.0086 24.4319C28.0711 24.4288 28.1301 24.4017 28.1732 24.3563C28.2164 24.3108 28.2404 24.2506 28.2403 24.1879V23.9867C28.2403 23.922 28.2146 23.8599 28.1688 23.8142C28.1231 23.7684 28.061 23.7427 27.9963 23.7427H25.0598C25.0274 23.7428 24.9954 23.7493 24.9656 23.7619C24.9357 23.7744 24.9087 23.7928 24.886 23.8159C24.8637 23.8384 24.846 23.865 24.8339 23.8943C24.8219 23.9236 24.8158 23.955 24.8159 23.9867V24.1849C24.8159 24.2496 24.8416 24.3116 24.8873 24.3574C24.9331 24.4031 24.9951 24.4288 25.0598 24.4288H25.0964C25.3495 24.4288 25.4776 24.4715 25.5386 24.5783C25.5888 24.7125 25.6086 24.8562 25.5965 24.9991V26.4231C25.3636 26.5121 25.117 26.5596 24.8677 26.5634H24.7488C24.417 26.5427 24.1059 26.3953 23.8797 26.1517C23.6333 25.8552 23.4646 25.5021 23.3888 25.1241C23.2169 24.3788 23.1644 23.611 23.2332 22.8493C23.3095 21.7851 23.5687 21.0379 24.0017 20.6232C24.248 20.3875 24.5755 20.2554 24.9165 20.2543C25.1869 20.257 25.4519 20.3306 25.6849 20.4677C26.29 20.8827 26.7176 21.5094 26.8833 22.2241C26.8979 22.2751 26.9287 22.32 26.9711 22.3519C27.0135 22.3838 27.0651 22.4011 27.1181 22.401H27.2798C27.3114 22.4011 27.3428 22.395 27.3721 22.383C27.4014 22.3709 27.4281 22.3532 27.4505 22.3309C27.4965 22.2858 27.5228 22.2245 27.5237 22.1601V20.1689C27.5239 20.1072 27.5007 20.0478 27.4588 20.0025C27.417 19.9573 27.3595 19.9296 27.2981 19.9249L26.7431 19.8883L26.6729 19.8639C26.6515 19.859 26.6309 19.8508 26.6119 19.8395C26.136 19.5944 25.6193 19.4384 25.0873 19.3791C24.9531 19.3791 24.822 19.3578 24.6909 19.3578L24.7061 19.3242Z" fill="white"/>
<path d="M31.887 27.1854C31.8546 27.1854 31.8236 27.1726 31.8007 27.1497C31.7778 27.1268 31.765 27.0958 31.765 27.0634V26.8652C31.765 26.8329 31.7778 26.8019 31.8007 26.779C31.8236 26.7561 31.8546 26.7432 31.887 26.7432H32.0821C32.2068 26.7511 32.3306 26.719 32.4359 26.6518C32.5033 26.6018 32.5526 26.5311 32.5761 26.4505C32.6186 26.2419 32.6329 26.0286 32.6188 25.8162V23.6817H30.7221V25.8162C30.7045 26.0387 30.7189 26.2626 30.7648 26.481C30.7952 26.5582 30.8498 26.6234 30.9203 26.667C31.0204 26.7299 31.1378 26.7598 31.2558 26.7524H31.454C31.4701 26.752 31.4861 26.7549 31.5011 26.7608C31.5161 26.7668 31.5297 26.7758 31.5411 26.7872C31.5526 26.7986 31.5615 26.8122 31.5675 26.8272C31.5735 26.8422 31.5763 26.8582 31.5759 26.8744V27.0726C31.5763 27.0887 31.5735 27.1048 31.5675 27.1197C31.5615 27.1347 31.5526 27.1484 31.5411 27.1598C31.5297 27.1712 31.5161 27.1802 31.5011 27.1861C31.4861 27.1921 31.4701 27.195 31.454 27.1946H28.2948C28.2625 27.1946 28.2315 27.1817 28.2086 27.1588C28.1857 27.136 28.1729 27.1049 28.1729 27.0726V26.8744C28.1729 26.842 28.1857 26.811 28.2086 26.7881C28.2315 26.7652 28.2625 26.7524 28.2948 26.7524H28.493C28.6185 26.7594 28.7431 26.7275 28.8498 26.6609C28.9143 26.6113 28.9605 26.5415 28.9809 26.4627C29.025 26.2533 29.0393 26.0388 29.0236 25.8254V21.0166C29.0393 20.7961 29.0249 20.5745 28.9809 20.3579C28.9517 20.2809 28.8982 20.2156 28.8285 20.1719C28.7276 20.111 28.6106 20.0822 28.493 20.0895H28.2948C28.2625 20.0895 28.2315 20.0767 28.2086 20.0538C28.1857 20.0309 28.1729 19.9999 28.1729 19.9676V19.7724C28.1729 19.7401 28.1857 19.709 28.2086 19.6862C28.2315 19.6633 28.2625 19.6504 28.2948 19.6504H31.457C31.4732 19.65 31.4892 19.6529 31.5042 19.6589C31.5192 19.6648 31.5328 19.6738 31.5442 19.6852C31.5556 19.6966 31.5646 19.7103 31.5706 19.7253C31.5765 19.7402 31.5794 19.7563 31.579 19.7724V19.9737C31.5794 19.9898 31.5765 20.0059 31.5706 20.0208C31.5646 20.0358 31.5556 20.0494 31.5442 20.0609C31.5328 20.0723 31.5192 20.0812 31.5042 20.0872C31.4892 20.0932 31.4732 20.0961 31.457 20.0956H31.2588C31.1347 20.0893 31.0116 20.1201 30.9051 20.1841C30.8391 20.2355 30.7902 20.3056 30.7648 20.3853C30.7223 20.5949 30.7079 20.8093 30.7221 21.0226V22.9651H32.6188V21.0226C32.6325 20.8022 32.6181 20.5809 32.5761 20.364C32.5457 20.2868 32.4912 20.2216 32.4206 20.178C32.3186 20.1172 32.2007 20.0885 32.0821 20.0956H31.887C31.8546 20.0956 31.8236 20.0828 31.8007 20.0599C31.7778 20.0371 31.765 20.006 31.765 19.9737V19.7724C31.765 19.7401 31.7778 19.709 31.8007 19.6862C31.8236 19.6633 31.8546 19.6504 31.887 19.6504H35.0339C35.0663 19.6504 35.0973 19.6633 35.1202 19.6862C35.143 19.709 35.1559 19.7401 35.1559 19.7724V19.9737C35.1559 20.006 35.143 20.0371 35.1202 20.0599C35.0973 20.0828 35.0663 20.0956 35.0339 20.0956H34.8388C34.7146 20.0884 34.5912 20.1192 34.485 20.1841C34.4191 20.2355 34.3701 20.3056 34.3448 20.3853C34.3046 20.5952 34.2913 20.8094 34.3051 21.0226V25.8224C34.29 26.0428 34.3044 26.2643 34.3478 26.481C34.378 26.5566 34.4314 26.6207 34.5003 26.664C34.6024 26.7248 34.72 26.7545 34.8388 26.7494H35.0339C35.0663 26.7494 35.0973 26.7622 35.1202 26.7851C35.143 26.8079 35.1559 26.839 35.1559 26.8713V27.0695C35.1559 27.1019 35.143 27.1329 35.1202 27.1558C35.0973 27.1787 35.0663 27.1915 35.0339 27.1915L31.887 27.1854Z" fill="#303439"/>
<path d="M35.0343 19.7723V19.9735H34.8392C34.6935 19.9639 34.5484 20.0001 34.4244 20.0772C34.3365 20.1397 34.2721 20.2299 34.2415 20.3334C34.1961 20.557 34.1796 20.7855 34.1927 21.0134V25.8131C34.1801 26.0469 34.1965 26.2815 34.2415 26.5113C34.2808 26.6121 34.3513 26.6976 34.4427 26.7553C34.5637 26.8318 34.7054 26.869 34.8483 26.862H35.0343V27.0602H31.8874V26.862H32.0825C32.2321 26.8694 32.3803 26.83 32.5064 26.7492C32.5946 26.6856 32.6589 26.5944 32.6894 26.49C32.7367 26.2677 32.7542 26.04 32.7412 25.8131V23.5535H30.6066V25.8131C30.5944 26.0471 30.6118 26.2817 30.6585 26.5113C30.6978 26.6121 30.7683 26.6976 30.8597 26.7553C30.9807 26.8318 31.1224 26.869 31.2653 26.862H31.4635V27.0602H28.2952V26.862H28.4934C28.6438 26.8681 28.7926 26.8288 28.9204 26.7492C29.0057 26.6842 29.0678 26.5932 29.0972 26.49C29.1429 26.2675 29.1593 26.0399 29.146 25.8131V21.0164C29.1587 20.7815 29.1424 20.5459 29.0972 20.3151C29.0583 20.215 28.989 20.1296 28.899 20.0711C28.7777 19.9957 28.6361 19.9595 28.4934 19.9674H28.2952V19.7723H31.4574V19.9735H31.2592C31.1096 19.9655 30.9612 20.005 30.8353 20.0864C30.7464 20.1485 30.6809 20.2387 30.6493 20.3425C30.6055 20.5663 30.5892 20.7947 30.6006 21.0225V23.0869H32.7351V21.0225C32.7475 20.7875 32.73 20.5518 32.6833 20.3211C32.6453 20.2205 32.5758 20.1349 32.4851 20.0772C32.3624 20.0023 32.22 19.9661 32.0764 19.9735H31.8813V19.7723H35.0343ZM35.0343 19.5283H31.8874C31.8435 19.5282 31.8004 19.5401 31.7628 19.5626C31.7252 19.5852 31.6945 19.6176 31.6739 19.6564C31.6526 19.6176 31.6213 19.5853 31.5832 19.5627C31.5451 19.5402 31.5017 19.5283 31.4574 19.5283H28.2952C28.2305 19.5283 28.1685 19.554 28.1227 19.5998C28.077 19.6455 28.0513 19.7076 28.0513 19.7723V19.9735C28.0513 20.0382 28.077 20.1003 28.1227 20.146C28.1685 20.1918 28.2305 20.2175 28.2952 20.2175H28.4934C28.5856 20.2106 28.6778 20.2307 28.7587 20.2754C28.8066 20.3069 28.8447 20.3513 28.8685 20.4035C28.9007 20.6051 28.912 20.8095 28.9021 21.0134V25.8131C28.9143 26.0109 28.903 26.2095 28.8685 26.4046C28.8543 26.458 28.8258 26.5065 28.7862 26.5449C28.6947 26.6006 28.588 26.6262 28.4812 26.6181H28.283C28.2509 26.6177 28.219 26.6237 28.1892 26.6358C28.1594 26.6479 28.1324 26.6659 28.1096 26.6886C28.0869 26.7114 28.0689 26.7384 28.0568 26.7682C28.0447 26.798 28.0387 26.8299 28.0391 26.862V27.0602C28.0391 27.1249 28.0648 27.187 28.1105 27.2327C28.1563 27.2785 28.2183 27.3042 28.283 27.3042H31.4452C31.4895 27.3042 31.5329 27.2923 31.571 27.2698C31.6091 27.2472 31.6404 27.2149 31.6617 27.1761C31.6823 27.2149 31.713 27.2473 31.7506 27.2699C31.7883 27.2924 31.8313 27.3043 31.8752 27.3042H35.0343C35.099 27.3042 35.1611 27.2785 35.2068 27.2327C35.2526 27.187 35.2783 27.1249 35.2783 27.0602V26.862C35.2787 26.8299 35.2726 26.798 35.2605 26.7682C35.2484 26.7384 35.2305 26.7114 35.2077 26.6886C35.185 26.6659 35.1579 26.6479 35.1282 26.6358C35.0984 26.6237 35.0665 26.6177 35.0343 26.6181H34.8392C34.7467 26.6242 34.6544 26.603 34.5739 26.5571C34.5243 26.528 34.485 26.4843 34.461 26.4321C34.4272 26.2307 34.416 26.0261 34.4275 25.8222V21.0164C34.415 20.8186 34.4262 20.62 34.461 20.4248C34.4735 20.3693 34.5047 20.3197 34.5495 20.2846C34.6357 20.2297 34.7372 20.204 34.8392 20.2114H35.0343C35.099 20.2114 35.1611 20.1857 35.2068 20.1399C35.2526 20.0942 35.2783 20.0321 35.2783 19.9674V19.7723C35.2783 19.7076 35.2526 19.6455 35.2068 19.5998C35.1611 19.554 35.099 19.5283 35.0343 19.5283ZM30.8323 23.0869V21.2573C30.8221 21.0595 30.8333 20.8611 30.8658 20.6657C30.8807 20.6112 30.9115 20.5624 30.9543 20.5254C31.0452 20.4684 31.1523 20.4427 31.2592 20.4523H31.4574C31.5022 20.4544 31.5467 20.4442 31.5861 20.423C31.6256 20.4017 31.6585 20.3701 31.6814 20.3316C31.7043 20.2931 31.7162 20.249 31.716 20.2042C31.7157 20.1594 31.7033 20.1155 31.68 20.0772C31.7006 20.116 31.7313 20.1484 31.7689 20.171C31.8065 20.1935 31.8496 20.2054 31.8935 20.2053H32.0886C32.1822 20.1978 32.2758 20.2191 32.357 20.2663C32.4056 20.2956 32.444 20.3393 32.4668 20.3913C32.5038 20.5923 32.5161 20.7971 32.5034 21.0012V22.8308L30.8323 23.0869ZM30.8323 24.0505H32.4851V26.0662C32.495 26.264 32.4838 26.4623 32.4515 26.6577C32.4356 26.7118 32.4049 26.7603 32.3631 26.798C32.2716 26.8537 32.1649 26.8793 32.0581 26.8712H31.863C31.8195 26.8711 31.7768 26.8827 31.7392 26.9046C31.7017 26.9266 31.6707 26.9582 31.6495 26.9962C31.6276 26.9582 31.596 26.9266 31.558 26.9047C31.52 26.8827 31.4769 26.8712 31.433 26.8712H31.2348C31.1423 26.8773 31.0501 26.8561 30.9695 26.8102C30.9205 26.7791 30.8813 26.7347 30.8567 26.6821C30.82 26.481 30.8077 26.2763 30.8201 26.0722V24.0566L30.8323 24.0505Z" fill="white"/>
<path d="M38.7852 27.1846C38.7529 27.1846 38.7219 27.1718 38.699 27.1489C38.6761 27.126 38.6633 27.095 38.6633 27.0626V26.8645C38.6633 26.8321 38.6761 26.8011 38.699 26.7782C38.7219 26.7553 38.7529 26.7425 38.7852 26.7425H38.9042C39.0498 26.7603 39.1971 26.728 39.3219 26.651C39.3426 26.6318 39.3583 26.6079 39.3678 26.5814C39.3774 26.5549 39.3805 26.5265 39.3768 26.4985C39.3762 26.4418 39.368 26.3854 39.3524 26.3308C39.317 26.1961 39.2732 26.0637 39.2213 25.9344L38.9163 25.108H36.9526L36.7269 25.7362C36.6577 25.9104 36.6176 26.0948 36.608 26.282C36.6019 26.3493 36.6129 26.4171 36.6401 26.4789C36.6673 26.5408 36.7098 26.5948 36.7635 26.6358C36.9325 26.7066 37.1139 26.7429 37.2971 26.7425C37.3273 26.7455 37.3553 26.7597 37.3756 26.7822C37.3959 26.8048 37.4071 26.8341 37.4069 26.8645V27.0626C37.4069 27.095 37.3941 27.126 37.3712 27.1489C37.3483 27.1718 37.3173 27.1846 37.2849 27.1846H35.2724C35.24 27.1846 35.209 27.1718 35.1861 27.1489C35.1632 27.126 35.1504 27.095 35.1504 27.0626V26.8645C35.1505 26.8356 35.1606 26.8078 35.179 26.7855C35.1973 26.7633 35.2228 26.7481 35.251 26.7425C35.435 26.7119 35.5999 26.6113 35.7115 26.4619C35.9233 26.1291 36.0914 25.7704 36.2116 25.3947L38.3766 19.5734C38.3852 19.5504 38.4006 19.5305 38.4207 19.5163C38.4409 19.5022 38.4648 19.4944 38.4894 19.4942H38.5748C38.5999 19.4938 38.6246 19.5013 38.6453 19.5154C38.6661 19.5296 38.6819 19.5499 38.6907 19.5734L40.8862 25.5654C40.9919 25.9332 41.1566 26.2813 41.3741 26.5961C41.4668 26.6909 41.5923 26.7465 41.7248 26.7516C41.755 26.7547 41.783 26.7688 41.8033 26.7914C41.8236 26.8139 41.8347 26.8432 41.8346 26.8736V27.0718C41.8346 27.1042 41.8217 27.1352 41.7989 27.1581C41.776 27.1809 41.745 27.1938 41.7126 27.1938L38.7852 27.1846ZM38.6907 24.4646L37.9619 22.4307L37.2087 24.4646H38.6907Z" fill="#303439"/>
<path d="M38.5863 19.6163L40.7697 25.5991C40.8835 25.9805 41.0563 26.3416 41.282 26.6694C41.3952 26.7869 41.549 26.8567 41.7119 26.8646V27.0628H38.7845V26.8646H38.9035C39.0777 26.8807 39.2524 26.8389 39.4005 26.7457C39.4343 26.7145 39.4607 26.6761 39.4776 26.6333C39.4945 26.5906 39.5015 26.5445 39.4981 26.4987C39.4976 26.4307 39.4883 26.3631 39.4706 26.2974C39.4706 26.2669 39.4188 26.1328 39.3365 25.8949L39.0163 24.9801H36.8817L36.6256 25.6906C36.5527 25.8778 36.5105 26.0755 36.5006 26.2761C36.4942 26.3624 36.5096 26.4489 36.5453 26.5277C36.581 26.6065 36.6358 26.6752 36.7049 26.7274C36.8922 26.8106 37.0945 26.8552 37.2995 26.8585V27.0567H35.2869V26.8585C35.5002 26.8204 35.6916 26.7041 35.8236 26.5322C36.0422 26.1891 36.2155 25.8191 36.3389 25.4314L38.504 19.6102H38.5894M37.0372 24.5806H38.8669L37.9521 22.068L37.0372 24.5806ZM38.5894 19.3662H38.504C38.4543 19.3666 38.406 19.3819 38.3652 19.4102C38.3244 19.4385 38.2931 19.4784 38.2753 19.5248L36.1102 25.346C35.9981 25.7116 35.8371 26.0604 35.6315 26.3828C35.5363 26.5067 35.3981 26.5905 35.2442 26.6176C35.1877 26.6277 35.1365 26.6573 35.0997 26.7014C35.0629 26.7454 35.0428 26.8011 35.043 26.8585V27.0567C35.043 27.1214 35.0687 27.1835 35.1144 27.2292C35.1602 27.275 35.2222 27.3007 35.2869 27.3007H37.2995C37.3642 27.3007 37.4262 27.275 37.472 27.2292C37.5177 27.1835 37.5434 27.1214 37.5434 27.0567V26.8585C37.5437 26.7973 37.5209 26.7383 37.4797 26.6931C37.4385 26.6479 37.3818 26.6199 37.3208 26.6146C37.1586 26.6125 36.9979 26.5837 36.8451 26.5292C36.8078 26.4994 36.7789 26.4604 36.7612 26.416C36.7436 26.3716 36.7378 26.3234 36.7445 26.2761C36.754 26.1023 36.7921 25.9313 36.8573 25.7699L37.0525 25.224H38.8455L39.1108 25.9711C39.2145 26.2761 39.2328 26.331 39.2358 26.3432C39.2496 26.3918 39.2567 26.442 39.2572 26.4926C39.2584 26.5149 39.2531 26.5372 39.2419 26.5566C39.1382 26.6084 39.0216 26.6285 38.9065 26.6146H38.7876C38.7554 26.6141 38.7235 26.6202 38.6937 26.6323C38.664 26.6444 38.6369 26.6624 38.6142 26.6851C38.5914 26.7078 38.5735 26.7349 38.5614 26.7647C38.5493 26.7944 38.5432 26.8263 38.5436 26.8585V27.0567C38.5436 27.1214 38.5693 27.1835 38.6151 27.2292C38.6608 27.275 38.7229 27.3007 38.7876 27.3007H41.715C41.7797 27.3007 41.8417 27.275 41.8875 27.2292C41.9332 27.1835 41.9589 27.1214 41.9589 27.0567V26.8585C41.9592 26.7978 41.9369 26.7392 41.8963 26.6941C41.8557 26.649 41.7997 26.6206 41.7394 26.6146C41.6371 26.6133 41.5396 26.5716 41.468 26.4987C41.2592 26.1961 41.1016 25.8613 41.0014 25.5076L38.8181 19.5278C38.8015 19.4804 38.7706 19.4394 38.7296 19.4104C38.6886 19.3814 38.6396 19.366 38.5894 19.3662ZM37.3849 24.3458L37.9582 22.7907L38.5162 24.3458H37.3849Z" fill="white"/>
<path d="M41.9989 27.1854C41.9666 27.1854 41.9355 27.1726 41.9127 27.1497C41.8898 27.1268 41.877 27.0958 41.877 27.0634V26.8652C41.877 26.8329 41.8898 26.8019 41.9127 26.779C41.9355 26.7561 41.9666 26.7432 41.9989 26.7432H42.1971C42.3226 26.7503 42.4472 26.7183 42.5539 26.6518C42.6184 26.6021 42.6646 26.5324 42.685 26.4536C42.7291 26.2442 42.7434 26.0296 42.7277 25.8162V21.0166C42.7434 20.7961 42.729 20.5745 42.685 20.3579C42.6558 20.2809 42.6023 20.2156 42.5326 20.1719C42.4317 20.111 42.3147 20.0822 42.1971 20.0895H41.9989C41.9666 20.0895 41.9355 20.0767 41.9127 20.0538C41.8898 20.0309 41.877 19.9999 41.877 19.9676V19.7724C41.877 19.7401 41.8898 19.709 41.9127 19.6862C41.9355 19.6633 41.9666 19.6504 41.9989 19.6504H45.1611C45.1774 19.65 45.1936 19.6529 45.2087 19.6588C45.2239 19.6648 45.2377 19.6737 45.2493 19.6851C45.261 19.6964 45.2703 19.71 45.2766 19.725C45.2829 19.74 45.2861 19.7561 45.2861 19.7724V19.9737C45.2861 19.9899 45.2829 20.0061 45.2766 20.0211C45.2703 20.0361 45.261 20.0496 45.2493 20.061C45.2377 20.0724 45.2239 20.0813 45.2087 20.0872C45.1936 20.0932 45.1774 20.096 45.1611 20.0956H44.9629C44.8388 20.0893 44.7157 20.1201 44.6092 20.1841C44.5432 20.2355 44.4943 20.3056 44.4689 20.3853C44.4264 20.5949 44.412 20.8092 44.4262 21.0226V25.8224C44.4152 26.0437 44.4357 26.2655 44.4872 26.481C44.5176 26.5582 44.5722 26.6234 44.6427 26.667C44.7427 26.7303 44.8601 26.7602 44.9781 26.7524H45.1764C45.1926 26.752 45.2088 26.7549 45.224 26.7608C45.2391 26.7667 45.2529 26.7757 45.2646 26.787C45.2762 26.7984 45.2855 26.812 45.2918 26.827C45.2981 26.842 45.3014 26.8581 45.3014 26.8744V27.0726C45.3014 27.0889 45.2981 27.105 45.2918 27.12C45.2855 27.135 45.2762 27.1486 45.2646 27.1599C45.2529 27.1713 45.2391 27.1802 45.224 27.1862C45.2088 27.1921 45.1926 27.195 45.1764 27.1946L41.9989 27.1854Z" fill="#303439"/>
<path d="M45.1636 19.7723V19.9735H44.9623C44.8127 19.9655 44.6643 20.005 44.5385 20.0864C44.4496 20.148 44.385 20.2385 44.3555 20.3425C44.3084 20.5659 44.291 20.7945 44.3037 21.0225V25.8222C44.2914 26.0562 44.3088 26.2909 44.3555 26.5205C44.3948 26.6212 44.4653 26.7067 44.5568 26.7644C44.6777 26.8409 44.8194 26.8782 44.9623 26.8712H45.1636V27.0694H41.9984V26.8712H42.1966C42.347 26.8773 42.4957 26.8379 42.6235 26.7583C42.7089 26.6933 42.7709 26.6024 42.8003 26.4992C42.846 26.2766 42.8624 26.049 42.8491 25.8222V21.0164C42.8619 20.7815 42.8455 20.5459 42.8003 20.3151C42.7615 20.215 42.6921 20.1296 42.6021 20.0711C42.4808 19.9957 42.3392 19.9595 42.1966 19.9674H41.9984V19.7723H45.1636ZM45.1636 19.5283H41.9984C41.9337 19.5283 41.8716 19.554 41.8258 19.5998C41.7801 19.6455 41.7544 19.7076 41.7544 19.7723V19.9735C41.7544 20.0382 41.7801 20.1003 41.8258 20.146C41.8716 20.1918 41.9337 20.2175 41.9984 20.2175H42.1966C42.2887 20.2106 42.3809 20.2307 42.4619 20.2754C42.5098 20.3069 42.5478 20.3513 42.5716 20.4035C42.606 20.6048 42.6173 20.8095 42.6052 21.0134V25.8131C42.6174 26.0109 42.6061 26.2095 42.5716 26.4046C42.5574 26.458 42.5289 26.5065 42.4893 26.5449C42.3978 26.6006 42.2912 26.6262 42.1844 26.6181H41.9862C41.954 26.6177 41.9221 26.6237 41.8923 26.6358C41.8625 26.6479 41.8355 26.6659 41.8127 26.6886C41.79 26.7114 41.7721 26.7384 41.7599 26.7682C41.7478 26.798 41.7418 26.8299 41.7422 26.862V27.0602C41.7422 27.1249 41.7679 27.187 41.8137 27.2327C41.8594 27.2785 41.9215 27.3042 41.9862 27.3042H45.1514C45.2161 27.3042 45.2781 27.2785 45.3239 27.2327C45.3696 27.187 45.3953 27.1249 45.3953 27.0602V26.862C45.3953 26.7973 45.3696 26.7353 45.3239 26.6895C45.2781 26.6438 45.2161 26.6181 45.1514 26.6181H44.9501C44.8576 26.6242 44.7654 26.603 44.6848 26.5571C44.6358 26.526 44.5967 26.4816 44.572 26.429C44.5353 26.2279 44.523 26.0232 44.5354 25.8192V21.0164C44.5252 20.8186 44.5365 20.6202 44.569 20.4248C44.5838 20.3703 44.6146 20.3215 44.6574 20.2846C44.7483 20.2275 44.8554 20.2018 44.9623 20.2114H45.1636C45.2283 20.2114 45.2903 20.1857 45.3361 20.1399C45.3818 20.0942 45.4075 20.0321 45.4075 19.9674V19.7723C45.4075 19.7076 45.3818 19.6455 45.3361 19.5998C45.2903 19.554 45.2283 19.5283 45.1636 19.5283Z" fill="white"/>
<path d="M58.8617 9.24294C61.2582 9.24294 63.2009 7.30019 63.2009 4.90369C63.2009 2.5072 61.2582 0.564453 58.8617 0.564453C56.4652 0.564453 54.5225 2.5072 54.5225 4.90369C54.5225 7.30019 56.4652 9.24294 58.8617 9.24294Z" stroke="#A7AEB8" stroke-width="0.2" stroke-miterlimit="10"/>
<path d="M60.8009 7.20216C60.8041 7.21929 60.8041 7.23685 60.8009 7.25399C60.7913 7.26889 60.7775 7.28057 60.7613 7.28753C60.7344 7.30051 60.7055 7.30877 60.6759 7.31193C60.6312 7.31573 60.5864 7.31573 60.5417 7.31193H60.4197C60.3908 7.30791 60.3629 7.2986 60.3374 7.28448C60.3151 7.27338 60.2961 7.25654 60.2825 7.23569C60.2657 7.20903 60.2524 7.18033 60.2429 7.1503L59.7275 5.8086C59.6665 5.65918 59.6025 5.50365 59.5354 5.38168C59.4695 5.25497 59.3864 5.13798 59.2884 5.03405C59.1873 4.93528 59.0683 4.85663 58.9377 4.80229C58.7814 4.74149 58.6145 4.71248 58.4468 4.71692H57.8735V7.20519C57.8767 7.2213 57.8767 7.23788 57.8735 7.25399C57.8629 7.2691 57.848 7.28076 57.8308 7.28753C57.8053 7.2976 57.7787 7.30476 57.7515 7.30888C57.7089 7.31259 57.6661 7.31259 57.6235 7.30888C57.5829 7.31237 57.5421 7.31237 57.5015 7.30888C57.4734 7.30471 57.4458 7.29755 57.4192 7.28753C57.402 7.28076 57.3871 7.2691 57.3765 7.25399C57.3719 7.23805 57.3719 7.22113 57.3765 7.20519V2.02127C57.3722 1.98216 57.3775 1.94261 57.3918 1.90597C57.4062 1.86934 57.4291 1.8367 57.4588 1.81087C57.5029 1.77503 57.5575 1.75468 57.6143 1.75293H58.6542C58.7914 1.75293 58.9042 1.75293 58.9926 1.75293C59.0811 1.75293 59.1634 1.75294 59.2396 1.78038C59.4308 1.80995 59.6161 1.86965 59.7885 1.95725C59.9367 2.03343 60.0691 2.13688 60.1788 2.26219C60.2801 2.38277 60.3577 2.5214 60.4075 2.67079C60.4574 2.83066 60.4821 2.99732 60.4807 3.16479C60.4839 3.33062 60.4581 3.49574 60.4045 3.65269C60.355 3.79138 60.2818 3.92037 60.188 4.03386C60.0909 4.14575 59.9767 4.24147 59.8495 4.31745C59.7127 4.39964 59.5675 4.4671 59.4165 4.5187C59.5088 4.5595 59.595 4.61287 59.6726 4.67728C59.7518 4.74354 59.8225 4.81933 59.883 4.90293C59.9512 4.99952 60.0114 5.1015 60.063 5.20786C60.1209 5.32374 60.1758 5.45182 60.2337 5.59514L60.7521 6.88501C60.7887 6.98564 60.8101 7.05272 60.8223 7.08931C60.8206 7.12775 60.8134 7.16577 60.8009 7.20216ZM59.8861 3.23799C59.8944 3.02393 59.8403 2.81207 59.7306 2.62811C59.6013 2.45152 59.4131 2.3271 59.2 2.27743C59.1123 2.25274 59.0224 2.2364 58.9316 2.22863C58.8047 2.2213 58.6774 2.2213 58.5505 2.22863H57.8674V4.25646H58.6602C58.8473 4.26029 59.0338 4.2335 59.2122 4.17718C59.3537 4.13198 59.4844 4.05831 59.5964 3.96068C59.693 3.8781 59.7683 3.77352 59.816 3.65575C59.8637 3.52608 59.8855 3.38826 59.88 3.25018L59.8861 3.23799Z" fill="#A7AEB8"/>
</g>
<defs>
<clipPath id="clip0_3729_20010">
<rect width="64" height="53.2876" fill="white" transform="translate(0.5)"/>
</clipPath>
</defs>
</svg>
