<svg width="16" height="13" viewBox="0 0 16 13" fill="none" xmlns="http://www.w3.org/2000/svg">
<path d="M1.875 0.625H14.125C15.082 0.625 15.875 1.41797 15.875 2.375V3.25H0.125V2.375C0.125 1.41797 0.890625 0.625 1.875 0.625ZM15.875 5.875V11.125C15.875 12.1094 15.082 12.875 14.125 12.875H1.875C0.890625 12.875 0.125 12.1094 0.125 11.125V5.875H15.875ZM3.1875 9.375C2.94141 9.375 2.75 9.59375 2.75 9.8125C2.75 10.0586 2.94141 10.25 3.1875 10.25H4.9375C5.15625 10.25 5.375 10.0586 5.375 9.8125C5.375 9.59375 5.15625 9.375 4.9375 9.375H3.1875ZM6.25 9.8125C6.25 10.0586 6.44141 10.25 6.6875 10.25H10.1875C10.4062 10.25 10.625 10.0586 10.625 9.8125C10.625 9.59375 10.4062 9.375 10.1875 9.375H6.6875C6.44141 9.375 6.25 9.59375 6.25 9.8125Z" fill="#A7AEB8"/>
</svg>
