<svg width="18" height="15" viewBox="0 0 18 15" fill="none" xmlns="http://www.w3.org/2000/svg">
<path d="M7.25 11.25C7.46875 11.25 7.6875 11.4688 7.6875 11.6875V12.5625C7.6875 12.7812 7.46875 13 7.25 13H5.9375V14.3125C5.9375 14.5312 5.71875 14.75 5.5 14.75H4.625C4.37891 14.75 4.1875 14.5312 4.1875 14.3125V13H2.875C2.62891 13 2.4375 12.7812 2.4375 12.5625V11.6875C2.4375 11.4414 2.62891 11.25 2.875 11.25H4.1875V10.293C1.94531 9.88281 0.25 7.94141 0.25 5.5625C0.25 2.91016 2.38281 0.75 5.0625 0.75C7.71484 0.75 9.875 2.91016 9.875 5.5625C9.875 7.94141 8.15234 9.88281 5.9375 10.293V11.25H7.25ZM5.0625 8.1875C6.48438 8.1875 7.6875 7.01172 7.6875 5.5625C7.6875 4.14062 6.48438 2.9375 5.0625 2.9375C3.61328 2.9375 2.4375 4.14062 2.4375 5.5625C2.4375 7.01172 3.61328 8.1875 5.0625 8.1875ZM17.3125 0.75C17.5312 0.75 17.75 0.96875 17.75 1.1875V4.27734C17.75 4.66016 17.4219 4.93359 17.0664 4.93359C16.9023 4.93359 16.7383 4.87891 16.6289 4.74219L15.8086 3.92188L15.125 4.60547C16.4375 6.46484 16.2461 9.0625 14.5781 10.7305C13.6484 11.6602 12.418 12.125 11.1875 12.125C10.2305 12.125 9.30078 11.8516 8.48047 11.332C8.39844 10.9766 8.15234 10.7031 7.82422 10.5391C8.42578 10.2109 8.94531 9.74609 9.38281 9.22656C9.90234 9.71875 10.5312 9.9375 11.1602 9.9375C11.8438 9.9375 12.5273 9.69141 13.0195 9.17188C14.0586 8.16016 14.0586 6.49219 13.0195 5.48047C12.5273 4.96094 11.8438 4.71484 11.1602 4.71484C10.9961 4.71484 10.832 4.71484 10.668 4.74219C10.5586 4.00391 10.3125 3.29297 9.92969 2.69141C10.3398 2.58203 10.75 2.52734 11.1602 2.52734C12.1172 2.52734 13.0742 2.80078 13.8945 3.375L14.5781 2.69141L13.7578 1.87109C13.3477 1.46094 13.6484 0.75 14.2227 0.75H17.3125Z" fill="#A7AEB8"/>
</svg>
