<svg width="18" height="13" viewBox="0 0 18 13" fill="none" xmlns="http://www.w3.org/2000/svg">
<path d="M8.28516 4.53516C8.53125 4.28906 8.94141 4.28906 9.1875 4.53516L11.375 6.72266C11.6484 6.99609 11.6484 7.40625 11.375 7.65234C11.1289 7.92578 10.7188 7.92578 10.4727 7.65234L9.40625 6.58594V10.25C9.40625 10.6328 9.10547 10.9062 8.75 10.9062C8.36719 10.9062 8.09375 10.6328 8.09375 10.25V6.58594L7 7.65234C6.75391 7.92578 6.34375 7.92578 6.09766 7.65234C5.82422 7.40625 5.82422 6.99609 6.09766 6.72266L8.28516 4.53516ZM3.9375 12.875C1.75 12.875 0 11.125 0 8.9375C0 7.24219 1.09375 5.76562 2.625 5.24609V5.21875C2.625 2.70312 4.67578 0.625 7.21875 0.625C8.58594 0.625 9.84375 1.25391 10.6914 2.23828C11.1016 2.04688 11.5391 1.9375 12.0312 1.9375C13.8359 1.9375 15.3125 3.41406 15.3125 5.21875C15.3125 5.41016 15.2852 5.57422 15.2578 5.76562C16.5703 6.33984 17.5 7.65234 17.5 9.15625C17.5 11.1523 15.9414 12.7656 14 12.875H3.9375ZM7.21875 1.9375C5.38672 1.9375 3.9375 3.41406 3.9375 5.21875V6.17578L3.03516 6.47656C2.02344 6.83203 1.3125 7.81641 1.3125 8.9375C1.3125 10.3867 2.46094 11.5625 3.9375 11.5625H13.8359H13.918C15.1758 11.5078 16.1875 10.4414 16.1875 9.15625C16.1875 8.17188 15.5859 7.32422 14.7383 6.96875L13.8086 6.55859L13.9727 5.54688C13.9727 5.4375 14 5.32812 14 5.21875C14 4.15234 13.0977 3.25 12.0312 3.25C11.7305 3.25 11.457 3.33203 11.2109 3.44141L10.3359 3.82422L9.67969 3.08594C9.07812 2.40234 8.20312 1.9375 7.19141 1.9375H7.21875Z" fill="#319EFF"/>
</svg>
