<svg width="3" height="13" viewBox="0 0 3 13" fill="none" xmlns="http://www.w3.org/2000/svg">
<path d="M2.375 10.25C2.6875 10.25 3 10.5625 3 10.875V12.125C3 12.4766 2.6875 12.75 2.375 12.75H1.125C0.773438 12.75 0.5 12.4766 0.5 12.125V10.875C0.5 10.5625 0.773438 10.25 1.125 10.25H2.375ZM2.375 5.25C2.6875 5.25 3 5.5625 3 5.875V7.125C3 7.47656 2.6875 7.75 2.375 7.75H1.125C0.773438 7.75 0.5 7.47656 0.5 7.125V5.875C0.5 5.5625 0.773438 5.25 1.125 5.25H2.375ZM2.375 0.25C2.6875 0.25 3 0.5625 3 0.875V2.125C3 2.47656 2.6875 2.75 2.375 2.75H1.125C0.773438 2.75 0.5 2.47656 0.5 2.125V0.875C0.5 0.5625 0.773438 0.25 1.125 0.25H2.375Z" fill="#00AEEF"/>
</svg>
