<svg width="74" height="74" viewBox="0 0 74 74" fill="none" xmlns="http://www.w3.org/2000/svg">
<rect width="74" height="74" rx="16" fill="#F1F1FD"/>
<g filter="url(#filter0_f_390_6587)">
<rect x="25" y="33" width="24" height="24" rx="12" fill="#8486E7" fill-opacity="0.4"/>
</g>
<path opacity="0.8" d="M49.2336 41.1502L47.5669 38.3835C47.2169 37.7668 46.9002 36.6002 46.9002 35.9168V31.7002C46.9002 26.2668 42.4836 21.8335 37.0336 21.8335C31.5836 21.8335 27.1669 26.2668 27.1669 31.7002V35.9168C27.1669 36.6002 26.8502 37.7668 26.5002 38.3668L24.8169 41.1502C24.1502 42.2668 24.0002 43.5002 24.4169 44.6335C24.8169 45.7502 25.7669 46.6168 27.0002 47.0335C30.2336 48.1335 33.6336 48.6668 37.0336 48.6668C40.4336 48.6668 43.8336 48.1335 47.0669 47.0502C48.2336 46.6668 49.1336 45.7835 49.5669 44.6335C50.0002 43.4835 49.8836 42.2168 49.2336 41.1502Z" fill="#706DE8"/>
<path d="M40.7502 22.5335C39.6002 22.0835 38.3502 21.8335 37.0335 21.8335C35.7335 21.8335 34.4835 22.0668 33.3335 22.5335C34.0502 21.1835 35.4668 20.3335 37.0335 20.3335C38.6168 20.3335 40.0168 21.1835 40.7502 22.5335Z" fill="#171494"/>
<path d="M41.7165 50.3502C41.0165 52.2835 39.1665 53.6668 36.9998 53.6668C35.6831 53.6668 34.3831 53.1335 33.4665 52.1835C32.9331 51.6835 32.5331 51.0168 32.2998 50.3335C32.5165 50.3668 32.7331 50.3835 32.9665 50.4168C33.3498 50.4668 33.7498 50.5168 34.1498 50.5502C35.0998 50.6335 36.0665 50.6835 37.0331 50.6835C37.9831 50.6835 38.9331 50.6335 39.8665 50.5502C40.2165 50.5168 40.5665 50.5002 40.8998 50.4502C41.1665 50.4168 41.4331 50.3835 41.7165 50.3502Z" fill="#171494"/>
<defs>
<filter id="filter0_f_390_6587" x="10" y="18" width="54" height="54" filterUnits="userSpaceOnUse" color-interpolation-filters="sRGB">
<feFlood flood-opacity="0" result="BackgroundImageFix"/>
<feBlend mode="normal" in="SourceGraphic" in2="BackgroundImageFix" result="shape"/>
<feGaussianBlur stdDeviation="7.5" result="effect1_foregroundBlur_390_6587"/>
</filter>
</defs>
</svg>
