<svg width="16" height="17" viewBox="0 0 16 17" fill="none" xmlns="http://www.w3.org/2000/svg">
<path d="M8.4375 0.375C9.35156 0.375 10.125 1.14844 10.125 2.0625V14.4375C10.125 15.3867 9.35156 16.125 8.4375 16.125H7.3125C6.36328 16.125 5.625 15.3867 5.625 14.4375V2.0625C5.625 1.14844 6.36328 0.375 7.3125 0.375H8.4375ZM8.4375 2.0625H7.3125V14.4375H8.4375V2.0625ZM2.8125 7.125C3.72656 7.125 4.5 7.89844 4.5 8.8125V14.4375C4.5 15.3867 3.72656 16.125 2.8125 16.125H1.6875C0.738281 16.125 0 15.3867 0 14.4375V8.8125C0 7.89844 0.738281 7.125 1.6875 7.125H2.8125ZM2.8125 8.8125H1.6875V14.4375H2.8125V8.8125ZM11.25 4.3125C11.25 3.39844 11.9883 2.625 12.9375 2.625H14.0625C14.9766 2.625 15.75 3.39844 15.75 4.3125V14.4375C15.75 15.3867 14.9766 16.125 14.0625 16.125H12.9375C11.9883 16.125 11.25 15.3867 11.25 14.4375V4.3125ZM12.9375 14.4375H14.0625V4.3125H12.9375V14.4375Z" fill="#A7AEB8"/>
</svg>
