<svg width="18" height="16" viewBox="0 0 18 16" fill="none" xmlns="http://www.w3.org/2000/svg">
<path d="M11.25 0C12.1875 0 13 0.8125 13 1.75V5.75C13 6.71875 12.1875 7.5 11.25 7.5H6.25C5.28125 7.5 4.5 6.71875 4.5 5.75V1.75C4.5 0.8125 5.28125 0 6.25 0H11.25ZM11.25 1.5H10V3.5C10 3.78125 9.75 4 9.5 4H8C7.71875 4 7.5 3.78125 7.5 3.5V1.5H6.25C6.09375 1.5 6 1.625 6 1.75V5.75C6 5.90625 6.09375 6 6.25 6H11.25C11.375 6 11.5 5.90625 11.5 5.75V1.75C11.5 1.625 11.375 1.5 11.25 1.5ZM0 10.25C0 9.3125 0.78125 8.5 1.75 8.5H6.75C7.6875 8.5 8.5 9.3125 8.5 10.25V14.25C8.5 15.2188 7.6875 16 6.75 16H1.75C0.78125 16 0 15.2188 0 14.25V10.25ZM5.5 12C5.5 12.2812 5.25 12.5 5 12.5H3.5C3.21875 12.5 3 12.2812 3 12V10H1.75C1.59375 10 1.5 10.125 1.5 10.25V14.25C1.5 14.4062 1.59375 14.5 1.75 14.5H6.75C6.875 14.5 7 14.4062 7 14.25V10.25C7 10.125 6.875 10 6.75 10H5.5V12ZM9.5 10.25C9.5 9.3125 10.2812 8.5 11.25 8.5H16.25C17.1875 8.5 18 9.3125 18 10.25V14.25C18 15.2188 17.1875 16 16.25 16H11.25C10.2812 16 9.5 15.2188 9.5 14.25V10.25ZM15 12C15 12.2812 14.75 12.5 14.5 12.5H13C12.7188 12.5 12.5 12.2812 12.5 12V10H11.25C11.0938 10 11 10.125 11 10.25V14.25C11 14.4062 11.0938 14.5 11.25 14.5H16.25C16.375 14.5 16.5 14.4062 16.5 14.25V10.25C16.5 10.125 16.375 10 16.25 10H15V12Z" fill="#303439"/>
</svg>
