<svg width="14" height="16" viewBox="0 0 14 16" fill="none" xmlns="http://www.w3.org/2000/svg">
<path d="M5.375 11.9375C5.5 12.125 5.71875 12.25 5.96875 12.25C6 12.25 6 12.25 6.03125 12.25C6.28125 12.25 6.53125 12.0938 6.65625 11.8438L8.03125 9.09375L8.34375 9.625C8.46875 9.875 8.71875 10 9 10H10.25C10.6562 10 11 9.6875 11 9.25C11 8.84375 10.6562 8.5 10.25 8.5H9.40625L8.625 7.15625C8.5 6.90625 8.25 6.75 7.96875 6.75C7.6875 6.78125 7.4375 6.9375 7.3125 7.1875L5.90625 10.0312L5.09375 8.84375C4.96875 8.625 4.75 8.5 4.5 8.5H0.75C0.3125 8.5 0 8.84375 0 9.25C0 9.6875 0.3125 10 0.75 10H4.09375L5.375 11.9375ZM13.4062 2.9375L11.0625 0.59375C10.6875 0.21875 10.1875 0 9.65625 0H4C2.875 0 1.96875 0.90625 2 2V6.75C2 7.1875 2.3125 7.5 2.75 7.5C3.15625 7.5 3.5 7.1875 3.5 6.75V2.03125C3.5 1.75 3.71875 1.53125 4 1.53125H9V4C9 4.5625 9.4375 5 10 5H12.4688V14C12.4688 14.2812 12.2188 14.5 11.9688 14.5H4C3.71875 14.5 3.5 14.2812 3.5 14L3.46875 11.75C3.46875 11.3438 3.15625 11 2.75 11C2.375 11 2 11.3438 2 11.75V14C2 15.125 2.875 16 4 16H12C13.0938 16 14 15.125 14 14V4.34375C14 3.8125 13.7812 3.3125 13.4062 2.9375Z" fill="#303439"/>
</svg>
