<svg width="18" height="15" viewBox="0 0 18 15" fill="none" xmlns="http://www.w3.org/2000/svg">
<path d="M16.6289 12.8906C17.0664 13.7656 17.668 14.3945 17.668 14.4219C17.7227 14.4766 17.75 14.5586 17.7227 14.6406C17.6953 14.7227 17.6133 14.75 17.5312 14.75C16.5469 14.75 15.6992 14.4766 15.0156 14.1758C14.2773 14.5312 13.4023 14.75 12.5 14.75C10.0117 14.75 7.96094 13.2188 7.38672 11.1133C10.3125 10.5391 12.5 8.26953 12.5 5.5625C12.5 5.42578 12.4727 5.28906 12.4727 5.15234C12.4727 5.15234 12.4727 5.125 12.5 5.125C15.3984 5.125 17.75 7.28516 17.75 9.9375C17.75 11.0586 17.3125 12.0703 16.6289 12.8906ZM11.625 5.5625C11.625 8.24219 9.05469 10.375 5.9375 10.375C4.87109 10.375 3.91406 10.1562 3.06641 9.71875C2.38281 10.0742 1.50781 10.375 0.441406 10.375C0.359375 10.375 0.277344 10.3477 0.25 10.2656C0.222656 10.1836 0.222656 10.1016 0.304688 10.0469C0.304688 10.0195 0.933594 9.36328 1.37109 8.46094C0.660156 7.64062 0.25 6.65625 0.25 5.5625C0.25 2.91016 2.79297 0.75 5.9375 0.75C9.05469 0.75 11.625 2.91016 11.625 5.5625ZM5.9375 8.625C6.32031 8.625 6.59375 8.35156 6.59375 7.96875C6.59375 7.58594 6.32031 7.3125 5.9375 7.3125C5.55469 7.3125 5.28125 7.58594 5.28125 7.96875C5.28125 8.35156 5.55469 8.625 5.9375 8.625ZM7.38672 5.45312C7.85156 5.17969 8.125 4.6875 8.125 4.19531C8.125 3.375 7.46875 2.71875 6.64844 2.71875H5.55469C4.73438 2.71875 4.10547 3.375 4.10547 4.19531C4.10547 4.46875 4.32422 4.6875 4.59766 4.6875C4.87109 4.6875 5.08984 4.46875 5.08984 4.19531C5.08984 3.94922 5.30859 3.73047 5.55469 3.73047H6.64844C6.89453 3.73047 7.11328 3.94922 7.11328 4.19531C7.11328 4.35938 7.03125 4.49609 6.86719 4.60547L5.69141 5.31641C5.52734 5.39844 5.44531 5.5625 5.44531 5.75391V6.08203C5.44531 6.35547 5.66406 6.57422 5.9375 6.57422C6.21094 6.57422 6.42969 6.35547 6.42969 6.08203V6.02734L7.38672 5.45312Z" fill="#A7AEB8"/>
</svg>
