<svg width="13" height="11" viewBox="0 0 13 11" fill="none" xmlns="http://www.w3.org/2000/svg">
<path d="M0.375 1.15625C0.375 0.800781 0.648438 0.5 1.03125 0.5H11.9688C12.3242 0.5 12.625 0.800781 12.625 1.15625C12.625 1.53906 12.3242 1.8125 11.9688 1.8125H1.03125C0.648438 1.8125 0.375 1.53906 0.375 1.15625ZM2.125 5.53125C2.125 5.17578 2.39844 4.875 2.78125 4.875H10.2188C10.5742 4.875 10.875 5.17578 10.875 5.53125C10.875 5.91406 10.5742 6.1875 10.2188 6.1875H2.78125C2.39844 6.1875 2.125 5.91406 2.125 5.53125ZM7.59375 10.5625H5.40625C5.02344 10.5625 4.75 10.2891 4.75 9.90625C4.75 9.55078 5.02344 9.25 5.40625 9.25H7.59375C7.94922 9.25 8.25 9.55078 8.25 9.90625C8.25 10.2891 7.94922 10.5625 7.59375 10.5625Z" fill="#303439"/>
</svg>
