<svg width="11" height="15" viewBox="0 0 11 15" fill="none" xmlns="http://www.w3.org/2000/svg">
<path d="M9.40625 6C9.02344 6 8.75 6.30078 8.75 6.65625V7.75C8.75 9.80078 6.97266 11.4414 4.89453 11.25C3.0625 11.0586 1.75 9.44531 1.75 7.61328V6.65625C1.75 6.30078 1.44922 6 1.09375 6C0.710938 6 0.4375 6.30078 0.4375 6.65625V7.53125C0.4375 9.96484 2.1875 12.1523 4.59375 12.4805V13.4375H3.25391C2.89844 13.4375 2.625 13.7383 2.625 14.0938C2.625 14.4219 2.89844 14.75 3.25391 14.75H7.19141C7.57422 14.75 7.875 14.4766 7.875 14.0938C7.875 13.7383 7.57422 13.4375 7.21875 13.4375H5.90625V12.5352C8.23047 12.207 10.0625 10.1836 10.0625 7.75V6.65625C10.0625 6.30078 9.76172 6 9.40625 6ZM5.25 10.375C6.69922 10.375 7.875 9.19922 7.875 7.75V3.375C7.875 1.95312 6.69922 0.75 5.25 0.75C3.80078 0.75 2.625 1.92578 2.625 3.375V7.75C2.625 9.19922 3.80078 10.375 5.25 10.375ZM3.9375 3.375C3.9375 2.66406 4.51172 2.0625 5.25 2.0625C5.96094 2.0625 6.5625 2.66406 6.5625 3.375V7.75C6.5625 8.48828 5.96094 9.0625 5.25 9.0625C4.51172 9.0625 3.9375 8.48828 3.9375 7.75V3.375Z" fill="#303439"/>
</svg>
