<svg width="20" height="16" viewBox="0 0 20 16" fill="none" xmlns="http://www.w3.org/2000/svg">
<path d="M18.75 9.46875L16.25 6.96875C15.9375 6.6875 15.4688 6.6875 15.1875 6.96875C14.875 7.28125 14.875 7.75 15.1875 8.03125L16.4375 9.25H7.75C7.3125 9.25 7 9.59375 7 10C7 10.4375 7.3125 10.75 7.75 10.75H16.4375L15.2188 12C15.0625 12.125 15 12.3125 15 12.5C15 12.7188 15.0625 12.9062 15.2188 13.0312C15.5 13.3438 15.9688 13.3438 16.25 13.0312L18.75 10.5312C19.0625 10.25 19.0625 9.78125 18.75 9.46875ZM12.25 12C11.8125 12 11.5 12.3438 11.5 12.75V14C11.5 14.2812 11.25 14.5 11 14.5H3C2.71875 14.5 2.5 14.2812 2.5 14V2.03125C2.5 1.75 2.71875 1.53125 3 1.53125H8V4C8 4.5625 8.4375 5 9 5H11.4688V7.25C11.4688 7.6875 11.7812 8 12.1875 8C12.5625 8 13 7.6875 13 7.25V4.34375C13 3.8125 12.7812 3.3125 12.4062 2.9375L10.0625 0.59375C9.6875 0.21875 9.1875 0 8.65625 0H2.96875C1.875 0 0.96875 0.90625 1 2V14C1 15.125 1.875 16 3 16H11C12.0938 16 13 15.125 13 14V12.75C13 12.3438 12.6562 12 12.25 12Z" fill="#303439"/>
</svg>
