<svg width="15" height="15" viewBox="0 0 15 15" fill="none" xmlns="http://www.w3.org/2000/svg">
<path d="M2.08594 9.60938L10.3984 1.29688C11.082 0.613281 12.2031 0.613281 12.8867 1.29688L13.9531 2.36328C14.0352 2.44531 14.1172 2.55469 14.1719 2.63672C14.6367 3.32031 14.5547 4.25 13.9531 4.85156L5.64062 13.1641C5.61328 13.1914 5.55859 13.2188 5.53125 13.2734C5.25781 13.4922 4.95703 13.6562 4.62891 13.7656L1.32031 14.7227C1.10156 14.8047 0.855469 14.75 0.691406 14.5586C0.5 14.3945 0.445312 14.1484 0.5 13.9297L1.48438 10.6211C1.59375 10.2383 1.8125 9.88281 2.08594 9.60938ZM2.74219 11.0039L2.11328 13.1367L4.24609 12.5078C4.41016 12.4531 4.57422 12.3711 4.71094 12.2344L10.9727 5.97266L9.25 4.27734L3.01562 10.5391C2.98828 10.5391 2.98828 10.5664 2.96094 10.5938C2.85156 10.7031 2.79688 10.8398 2.74219 11.0039Z" fill="#303439"/>
</svg>
