<svg width="74" height="78" viewBox="0 0 74 78" fill="none" xmlns="http://www.w3.org/2000/svg">
<rect width="74" height="74" rx="16" fill="#FFF0F3"/>
<g filter="url(#filter0_f_7529_42505)">
<rect x="25" y="39" width="24" height="24" rx="12" fill="#5679F5" fill-opacity="0.2"/>
</g>
<path d="M37.75 43.625C37.75 39.3047 41.25 35.75 45.625 35.75C49.9453 35.75 53.5 39.3047 53.5 43.625C53.5 48 49.9453 51.5 45.625 51.5C41.25 51.5 37.75 48 37.75 43.625ZM49.2891 42.5312C49.6172 42.2031 49.6172 41.6016 49.2891 41.2734C48.9609 40.9453 48.3594 40.9453 48.0312 41.2734L44.75 44.6094L43.1641 43.0234C42.8359 42.6953 42.2344 42.6953 41.9062 43.0234C41.5781 43.3516 41.5781 43.9531 41.9062 44.2812L44.0938 46.4688C44.4219 46.7969 45.0234 46.7969 45.3516 46.4688L49.2891 42.5312ZM39.5 23.5C41.4141 23.5 43 25.0859 43 27V34.3828C38.9531 35.5312 36 39.25 36 43.625C36 46.9062 37.5859 49.75 39.9922 51.5C39.8281 51.5 39.6641 51.5 39.5 51.5H25.5C23.5312 51.5 22 49.9688 22 48V27C22 25.0859 23.5312 23.5 25.5 23.5H39.5ZM26.375 30.5C25.8828 30.5 25.5 30.9375 25.5 31.375C25.5 31.8672 25.8828 32.25 26.375 32.25H38.625C39.0625 32.25 39.5 31.8672 39.5 31.375C39.5 30.9375 39.0625 30.5 38.625 30.5H26.375ZM26.375 37.5H35.125C35.5625 37.5 36 37.1172 36 36.625C36 36.1875 35.5625 35.75 35.125 35.75H26.375C25.8828 35.75 25.5 36.1875 25.5 36.625C25.5 37.1172 25.8828 37.5 26.375 37.5ZM26.375 42.75H31.625C32.0625 42.75 32.5 42.3672 32.5 41.875C32.5 41.4375 32.0625 41 31.625 41H26.375C25.8828 41 25.5 41.4375 25.5 41.875C25.5 42.3672 25.8828 42.75 26.375 42.75Z" fill="#DF5C74"/>
<defs>
<filter id="filter0_f_7529_42505" x="10" y="24" width="54" height="54" filterUnits="userSpaceOnUse" color-interpolation-filters="sRGB">
<feFlood flood-opacity="0" result="BackgroundImageFix"/>
<feBlend mode="normal" in="SourceGraphic" in2="BackgroundImageFix" result="shape"/>
<feGaussianBlur stdDeviation="7.5" result="effect1_foregroundBlur_7529_42505"/>
</filter>
</defs>
</svg>
